<svg width="18" height="18" viewBox="0 0 18 18" fill="none" xmlns="http://www.w3.org/2000/svg">
<path d="M8.37378 15.0903L8.37382 15.09L8.37556 15.0732C8.41638 14.6795 8.46759 14.1857 8.5792 13.6066M8.37378 15.0903L9.00003 13.6877M8.37378 15.0903C8.35011 15.3205 8.33084 15.5064 8.30604 15.663C8.28096 15.8214 8.25413 15.9219 8.2261 15.9864C8.21304 16.0165 8.20219 16.0328 8.19572 16.041C8.18999 16.0483 8.18665 16.0505 8.18485 16.0516L8.18483 16.0516C8.18258 16.0531 8.15306 16.0717 8.05503 16.0717C7.73372 16.0717 7.33485 15.9277 7.01697 15.6578C6.70498 15.3929 6.5036 15.0361 6.5036 14.625C6.5036 14.088 6.57616 13.2647 6.65129 12.5605C6.68851 12.2116 6.72575 11.8974 6.7537 11.6704C6.76766 11.557 6.77929 11.4655 6.78741 11.4024L6.7968 11.33L6.79925 11.3114L6.79987 11.3068L6.80001 11.3057L6.80005 11.3054L6.80006 11.3054L6.86476 10.8202H6.37524H3.23617C2.7441 10.8202 2.43894 10.667 2.25009 10.4513C2.05315 10.2264 1.92903 9.87195 1.92903 9.37482C1.92903 8.97517 2.00441 8.78673 2.10212 8.54248L2.10385 8.53815L2.10409 8.53755L2.10599 8.53283C2.16495 8.38608 2.23654 8.2079 2.29216 7.9743L2.29246 7.97303C2.35275 7.71635 2.33289 7.45228 2.31744 7.24698C2.31678 7.23818 2.31613 7.22949 2.31549 7.2209L2.31548 7.22078C2.28785 6.8513 2.27001 6.54332 2.44568 6.1914C2.60837 5.86733 2.82503 5.65094 3.05839 5.42146C3.06691 5.41309 3.07558 5.4046 3.08437 5.396C3.2733 5.21101 3.51926 4.97019 3.63815 4.64866L3.63817 4.64867L3.63978 4.64416L3.64868 4.61924M8.37378 15.0903L3.64868 4.61924M8.5792 13.6066L9.00003 13.6877M8.5792 13.6066C8.5792 13.6066 8.5792 13.6067 8.5792 13.6067L9.00003 13.6877M8.5792 13.6066C8.73349 12.8057 9.07336 11.9087 9.49757 11.1366C9.86356 10.4704 10.3207 9.845 10.8182 9.46807M9.00003 13.6877C9.28932 12.186 10.2902 10.2677 11.2468 9.69432M10.8182 9.46807V9.69432H11.2468M10.8182 9.46807V5.25024V5.24943C10.8198 4.42906 10.6775 4.04959 10.398 3.8287C10.0807 3.57801 9.47113 3.42882 8.24982 3.42882H5.4206C4.70956 3.42882 4.31345 3.65778 4.07776 3.89135C3.83012 4.13676 3.72074 4.42389 3.64868 4.61924M10.8182 9.46807C10.8869 9.41604 10.9564 9.36875 11.0265 9.32673L11.2468 9.69432M11.2468 9.69432L3.64868 4.61924M13.5887 10.4915C13.3783 10.4638 13.1828 10.3675 13.0326 10.2175C12.8824 10.0674 12.7859 9.872 12.7582 9.66153L13.5887 10.4915ZM13.5887 10.4915C13.6511 10.4998 13.7257 10.4998 13.8748 10.4998M13.5887 10.4915L13.8748 10.4998M13.8748 10.4998C14.0246 10.4998 14.0992 10.4998 14.1615 10.4915L13.8748 10.4998ZM14.5666 9.60582L14.5666 9.60585C14.5511 9.72266 14.4976 9.83111 14.4142 9.91439C14.3308 9.99768 14.2224 10.0512 14.1055 10.0666L14.1046 10.0667C14.0777 10.0703 14.0386 10.0712 13.8748 10.0712C13.7117 10.0712 13.6725 10.0703 13.6457 10.0667L13.6445 10.0665C13.5275 10.0512 13.4189 9.99768 13.3355 9.91432C13.2521 9.83095 13.1985 9.72238 13.1831 9.60546L13.1829 9.6046C13.1793 9.57775 13.1784 9.53858 13.1784 9.37482V4.12524C13.1784 3.96148 13.1793 3.92231 13.1829 3.89546L13.1831 3.89431C13.1985 3.77732 13.252 3.66867 13.3354 3.58523C13.4185 3.5022 13.5265 3.44876 13.6428 3.43311C13.6723 3.42961 13.7155 3.42882 13.8748 3.42882C14.0382 3.42882 14.0779 3.42975 14.1058 3.43345L14.1058 3.43346C14.2227 3.44894 14.3311 3.50251 14.4144 3.58586C14.4977 3.66922 14.5512 3.7777 14.5666 3.89453L14.5667 3.89546C14.5703 3.92231 14.5712 3.96149 14.5712 4.12524V9.37482C14.5712 9.53825 14.5703 9.57793 14.5666 9.60582Z" fill="#9DA1A6" stroke="#9DA1A6" stroke-width="0.857143"/>
</svg>
