<svg width="18" height="18" viewBox="0 0 18 18" fill="none" xmlns="http://www.w3.org/2000/svg">
<path d="M9.62622 2.90967L9.62618 2.91005L9.62444 2.9268C9.58362 3.3205 9.53241 3.81428 9.4208 4.39337M9.62622 2.90967L8.99997 4.31226M9.62622 2.90967C9.64989 2.67954 9.66916 2.49361 9.69396 2.33701C9.71904 2.17861 9.74587 2.07813 9.7739 2.01356C9.78696 1.98349 9.79781 1.96717 9.80428 1.95899C9.81001 1.95175 9.81335 1.9495 9.81515 1.94836L9.81517 1.94835C9.81742 1.94693 9.84694 1.92833 9.94497 1.92833C10.2663 1.92833 10.6652 2.07228 10.983 2.34218C11.295 2.60709 11.4964 2.96386 11.4964 3.37497C11.4964 3.91199 11.4238 4.73532 11.3487 5.43952C11.3115 5.78838 11.2742 6.10257 11.2463 6.32955C11.2323 6.443 11.2207 6.53454 11.2126 6.59759L11.2032 6.66996L11.2007 6.68856L11.2001 6.69319L11.2 6.6943L11.2 6.69456L11.1999 6.69461L11.1352 7.17983H11.6248H14.7638C15.2559 7.17983 15.5611 7.33295 15.7499 7.54865C15.9468 7.7736 16.071 8.12805 16.071 8.62518C16.071 9.02483 15.9956 9.21327 15.8979 9.45752L15.8961 9.46185L15.8959 9.46245L15.894 9.46717C15.8351 9.61392 15.7635 9.7921 15.7078 10.0257L15.7075 10.027C15.6472 10.2837 15.6671 10.5477 15.6826 10.753C15.6832 10.7618 15.6839 10.7705 15.6845 10.7791L15.6845 10.7792C15.7122 11.1487 15.73 11.4567 15.5543 11.8086C15.3916 12.1327 15.175 12.3491 14.9416 12.5785C14.9331 12.5869 14.9244 12.5954 14.9156 12.604C14.7267 12.789 14.4807 13.0298 14.3619 13.3513L14.3618 13.3513L14.3602 13.3558L14.3513 13.3808M9.62622 2.90967L14.3513 13.3808M9.4208 4.39337L8.99997 4.31226M9.4208 4.39337C9.4208 4.39335 9.4208 4.39334 9.4208 4.39332L8.99997 4.31226M9.4208 4.39337C9.26651 5.19426 8.92664 6.09126 8.50243 6.86343C8.13644 7.52962 7.67933 8.155 7.18176 8.53193M8.99997 4.31226C8.71068 5.81397 7.70975 7.73226 6.75318 8.30568M7.18176 8.53193V8.30568H6.75318M7.18176 8.53193V12.7498V12.7506C7.18019 13.5709 7.32248 13.9504 7.60204 14.1713C7.91931 14.422 8.52887 14.5712 9.75018 14.5712H12.5794C13.2904 14.5712 13.6866 14.3422 13.9222 14.1087C14.1699 13.8632 14.2793 13.5761 14.3513 13.3808M7.18176 8.53193C7.11308 8.58396 7.04362 8.63125 6.97354 8.67327L6.75318 8.30568M6.75318 8.30568L14.3513 13.3808M4.41125 7.50854C4.62175 7.53616 4.81724 7.63246 4.96742 7.78252C5.11759 7.93258 5.21405 8.128 5.24183 8.33847L4.41125 7.50854ZM4.41125 7.50854C4.3489 7.50018 4.27433 7.50018 4.12518 7.50018M4.41125 7.50854L4.12518 7.50018M4.12518 7.50018C3.9754 7.50018 3.90083 7.50018 3.83847 7.50854L4.12518 7.50018ZM3.43339 8.39418L3.43339 8.39415C3.44888 8.27734 3.50245 8.16889 3.5858 8.08561C3.66915 8.00232 3.77764 7.94883 3.89447 7.93344L3.8954 7.93332C3.92225 7.92972 3.96143 7.92876 4.12518 7.92876C4.28826 7.92876 4.32746 7.92972 4.35433 7.93332L4.35551 7.93347C4.47245 7.94881 4.58106 8.00232 4.66449 8.08568C4.74792 8.16905 4.80151 8.27762 4.81694 8.39454L4.81705 8.3954C4.82065 8.42225 4.82161 8.46142 4.82161 8.62518V13.8748C4.82161 14.0385 4.82065 14.0777 4.81705 14.1045L4.8169 14.1057C4.80154 14.2227 4.74799 14.3313 4.66455 14.4148C4.58152 14.4978 4.47351 14.5512 4.35716 14.5669C4.32769 14.5704 4.28453 14.5712 4.12518 14.5712C3.96175 14.5712 3.92207 14.5702 3.89418 14.5665L3.89415 14.5665C3.77734 14.5511 3.66889 14.4975 3.58561 14.4141C3.50232 14.3308 3.44883 14.2223 3.43344 14.1055L3.43331 14.1045C3.42971 14.0777 3.42875 14.0385 3.42875 13.8748V8.62518C3.42875 8.46175 3.42969 8.42207 3.43339 8.39418Z" fill="#8FCC14" stroke="#8FCC14" stroke-width="0.857143"/>
</svg>
