<svg width="18" height="18" viewBox="0 0 18 18" fill="none" xmlns="http://www.w3.org/2000/svg">
<path fill-rule="evenodd" clip-rule="evenodd" d="M5.25 7.5C5.25 7.086 5.586 6.75 6 6.75C6.414 6.75 6.75 7.086 6.75 7.5C6.75 7.914 6.414 8.25 6 8.25C5.586 8.25 5.25 7.914 5.25 7.5ZM9 6.75C8.586 6.75 8.25 7.086 8.25 7.5C8.25 7.914 8.586 8.25 9 8.25C9.414 8.25 9.75 7.914 9.75 7.5C9.75 7.086 9.414 6.75 9 6.75ZM12 6.75C11.586 6.75 11.25 7.086 11.25 7.5C11.25 7.914 11.586 8.25 12 8.25C12.414 8.25 12.75 7.914 12.75 7.5C12.75 7.086 12.414 6.75 12 6.75ZM15 11.25C15 11.6632 14.6632 12 14.25 12H6.4155C6.00825 12 5.60775 12.111 5.2575 12.321L3 13.6755V3.75C3 3.33675 3.33675 3 3.75 3H14.25C14.6632 3 15 3.33675 15 3.75V11.25ZM14.25 1.5H3.75C2.5095 1.5 1.5 2.5095 1.5 3.75V15C1.5 15.27 1.6455 15.5198 1.88025 15.6525C1.995 15.7178 2.1225 15.75 2.25 15.75C2.3835 15.75 2.517 15.7148 2.63625 15.6427L6.02925 13.6073C6.14625 13.5367 6.27975 13.5 6.4155 13.5H14.25C15.4905 13.5 16.5 12.4905 16.5 11.25V3.75C16.5 2.5095 15.4905 1.5 14.25 1.5Z" fill="#9DA1A6"/>
</svg>
