<svg width="16" height="16" viewBox="0 0 16 16" fill="none" xmlns="http://www.w3.org/2000/svg">
<g clip-path="url(#clip0)">
<path d="M9.58045e-05 6.95563C-0.00686438 7.56049 0.365987 8.10485 0.932475 8.31693V5.72489C0.932475 5.68759 0.951107 5.63166 0.951107 5.59436C0.3808 5.80474 0.00148784 6.3477 9.58045e-05 6.95563Z" fill="#9DA1A6"/>
<path d="M5.09096 10.1632H2.64807L3.56182 13.4825C3.69713 13.9891 4.15636 14.3412 4.6807 14.3404C5.05377 14.3448 5.40674 14.1717 5.63175 13.8742C5.85894 13.591 5.929 13.2129 5.81821 12.8672L5.09096 10.1632Z" fill="#9DA1A6"/>
<path d="M0.951111 5.57576H0.969743V5.55713C0.969743 5.57576 0.969743 5.57576 0.951111 5.57576Z" fill="#9DA1A6"/>
<path d="M14.3217 5.31458H14.1725V8.6712H14.3217C15.2486 8.6712 16 7.91979 16 6.99291C16 6.06599 15.2485 5.31458 14.3217 5.31458Z" fill="#9DA1A6"/>
<path d="M1.49194 5.7249V8.37291C1.51211 9.05865 2.07399 9.60397 2.75998 9.60369H6.15391V4.56873H2.75998C2.08866 4.56873 1.49194 5.05358 1.49194 5.7249Z" fill="#9DA1A6"/>
<path d="M6.71332 9.67826L13.613 12.4382V1.65967L6.71332 4.41958V9.67826Z" fill="#9DA1A6"/>
</g>
<defs>
<clipPath id="clip0">
<rect width="16" height="16" fill="white"/>
</clipPath>
</defs>
</svg>
